<svg viewBox="0 0 64 64" xmlns="http://www.w3.org/2000/svg">
  <!-- Background -->
  <circle cx="32" cy="32" r="30" fill="#FF5722" stroke="#D84315" stroke-width="3"/>
  
  <!-- Central star explosion -->
  <path d="M32 16 L35 26 L45 26 L37 33 L40 43 L32 37 L24 43 L27 33 L19 26 L29 26 Z" 
        fill="#FFEB3B" stroke="#FF9800" stroke-width="2"/>
  
  <!-- Explosion rays -->
  <path d="M32 8 L32 18" stroke="#FFFFFF" stroke-width="4" stroke-linecap="round"/>
  <path d="M32 46 L32 56" stroke="#FFFFFF" stroke-width="4" stroke-linecap="round"/>
  <path d="M8 32 L18 32" stroke="#FFFFFF" stroke-width="4" stroke-linecap="round"/>
  <path d="M46 32 L56 32" stroke="#FFFFFF" stroke-width="4" stroke-linecap="round"/>
  
  <!-- Diagonal rays -->
  <path d="M14 14 L22 22" stroke="#FFFFFF" stroke-width="3" stroke-linecap="round"/>
  <path d="M42 42 L50 50" stroke="#FFFFFF" stroke-width="3" stroke-linecap="round"/>
  <path d="M50 14 L42 22" stroke="#FFFFFF" stroke-width="3" stroke-linecap="round"/>
  <path d="M22 42 L14 50" stroke="#FFFFFF" stroke-width="3" stroke-linecap="round"/>
  
  <!-- Range arrows -->
  <path d="M12 12 L8 8" stroke="#FFFFFF" stroke-width="3" stroke-linecap="round"/>
  <path d="M52 12 L56 8" stroke="#FFFFFF" stroke-width="3" stroke-linecap="round"/>
  <path d="M12 52 L8 56" stroke="#FFFFFF" stroke-width="3" stroke-linecap="round"/>
  <path d="M52 52 L56 56" stroke="#FFFFFF" stroke-width="3" stroke-linecap="round"/>
  
  <!-- Inner highlight -->
  <circle cx="32" cy="32" r="25" fill="none" stroke="#FF8A65" stroke-width="2" opacity="0.5"/>
</svg>