<svg viewBox="0 0 64 64" xmlns="http://www.w3.org/2000/svg">
  <!-- Background -->
  <circle cx="32" cy="32" r="30" fill="#00BCD4" stroke="#0097A7" stroke-width="3"/>
  
  <!-- Lightning bolt -->
  <path d="M28 12 L20 32 L28 32 L24 52 L40 28 L32 28 L36 12 Z" 
        fill="#FFEB3B" stroke="#FFA000" stroke-width="2"/>
  
  <!-- Speed trails -->
  <path d="M8 20 L18 20 M6 26 L16 26 M8 32 L18 32 M6 38 L16 38 M8 44 L18 44" 
        stroke="#FFFFFF" stroke-width="3" stroke-linecap="round" opacity="0.8"/>
  
  <path d="M46 20 L56 20 M48 26 L58 26 M46 32 L56 32 M48 38 L58 38 M46 44 L56 44" 
        stroke="#FFFFFF" stroke-width="3" stroke-linecap="round" opacity="0.8"/>
  
  <!-- Inner highlight -->
  <circle cx="32" cy="32" r="25" fill="none" stroke="#4DD0E1" stroke-width="2" opacity="0.5"/>
</svg>